<?xml version="1.0" encoding="UTF-8" standalone="no"?>
<!-- Generator: Adobe Illustrator 18.1.0, SVG Export Plug-In . SVG Version: 6.00 Build 0)  -->
<svg width="676" height="104">
  <g transform="translate(16, 20)">
      <g transform="translate(0, 0)">
          <rect width="10" height="10" x="13" y="0" fill="#d6e685"></rect>
          <rect width="10" height="10" x="13" y="12" fill="#d6e685"></rect>
          <rect width="10" height="10" x="13" y="24" fill="#d6e685"></rect>
          <rect width="10" height="10" x="13" y="36" fill="#8cc665"></rect>
          <rect width="10" height="10" x="13" y="48" fill="#8cc665"></rect>
          <rect width="10" height="10" x="13" y="60" fill="#8cc665"></rect>
          <rect width="10" height="10" x="13" y="72" fill="#d6e685"></rect>
      </g>
      <g transform="translate(13, 0)">
          <rect width="10" height="10" x="12" y="0" fill="#d6e685"></rect>
          <rect width="10" height="10" x="12" y="12" fill="#d6e685"></rect>
          <rect width="10" height="10" x="12" y="24" fill="#1e6823"></rect>
          <rect width="10" height="10" x="12" y="36" fill="#d6e685"></rect>
          <rect width="10" height="10" x="12" y="48" fill="#8cc665"></rect>
          <rect width="10" height="10" x="12" y="60" fill="#8cc665"></rect>
          <rect width="10" height="10" x="12" y="72" fill="#8cc665"></rect>
      </g>
      <g transform="translate(26, 0)">
          <rect width="10" height="10" x="11" y="0" fill="#8cc665"></rect>
          <rect width="10" height="10" x="11" y="12" fill="#44a340"></rect>
          <rect width="10" height="10" x="11" y="24" fill="#d6e685"></rect>
          <rect width="10" height="10" x="11" y="36" fill="#d6e685"></rect>
          <rect width="10" height="10" x="11" y="48" fill="#8cc665"></rect>
          <rect width="10" height="10" x="11" y="60" fill="#8cc665"></rect>
          <rect width="10" height="10" x="11" y="72" fill="#d6e685"></rect>
      </g>
      <g transform="translate(39, 0)">
          <rect width="10" height="10" x="10" y="0" fill="#d6e685"></rect>
          <rect width="10" height="10" x="10" y="12" fill="#1e6823"></rect>
          <rect width="10" height="10" x="10" y="24" fill="#8cc665"></rect>
          <rect width="10" height="10" x="10" y="36" fill="#8cc665"></rect>
          <rect width="10" height="10" x="10" y="48" fill="#d6e685"></rect>
          <rect width="10" height="10" x="10" y="60" fill="#8cc665"></rect>
          <rect width="10" height="10" x="10" y="72" fill="#d6e685"></rect>
      </g>
      <g transform="translate(52, 0)">
          <rect width="10" height="10" x="9" y="0" fill="#8cc665"></rect>
          <rect width="10" height="10" x="9" y="12" fill="#d6e685"></rect>
          <rect width="10" height="10" x="9" y="24" fill="#8cc665"></rect>
          <rect width="10" height="10" x="9" y="36" fill="#8cc665"></rect>
          <rect width="10" height="10" x="9" y="48" fill="#8cc665"></rect>
          <rect width="10" height="10" x="9" y="60" fill="#d6e685"></rect>
          <rect width="10" height="10" x="9" y="72" fill="#d6e685"></rect>
      </g>
      <g transform="translate(65, 0)">
          <rect width="10" height="10" x="8" y="0" fill="#d6e685"></rect>
          <rect width="10" height="10" x="8" y="12" fill="#d6e685"></rect>
          <rect width="10" height="10" x="8" y="24" fill="#d6e685"></rect>
          <rect width="10" height="10" x="8" y="36" fill="#d6e685"></rect>
          <rect width="10" height="10" x="8" y="48" fill="#8cc665"></rect>
          <rect width="10" height="10" x="8" y="60" fill="#d6e685"></rect>
          <rect width="10" height="10" x="8" y="72" fill="#eeeeee"></rect>
      </g>
      <g transform="translate(78, 0)">
          <rect width="10" height="10" x="7" y="0" fill="#eeeeee"></rect>
          <rect width="10" height="10" x="7" y="12" fill="#8cc665"></rect>
          <rect width="10" height="10" x="7" y="24" fill="#8cc665"></rect>
          <rect width="10" height="10" x="7" y="36" fill="#44a340"></rect>
          <rect width="10" height="10" x="7" y="48" fill="#44a340"></rect>
          <rect width="10" height="10" x="7" y="60" fill="#d6e685"></rect>
          <rect width="10" height="10" x="7" y="72" fill="#d6e685"></rect>
      </g>
      <g transform="translate(91, 0)">
          <rect width="10" height="10" x="6" y="0" fill="#d6e685"></rect>
          <rect width="10" height="10" x="6" y="12" fill="#8cc665"></rect>
          <rect width="10" height="10" x="6" y="24" fill="#8cc665"></rect>
          <rect width="10" height="10" x="6" y="36" fill="#d6e685"></rect>
          <rect width="10" height="10" x="6" y="48" fill="#8cc665"></rect>
          <rect width="10" height="10" x="6" y="60" fill="#d6e685"></rect>
          <rect width="10" height="10" x="6" y="72" fill="#d6e685"></rect>
      </g>
      <g transform="translate(104, 0)">
          <rect width="10" height="10" x="5" y="0" fill="#d6e685"></rect>
          <rect width="10" height="10" x="5" y="12" fill="#8cc665"></rect>
          <rect width="10" height="10" x="5" y="24" fill="#d6e685"></rect>
          <rect width="10" height="10" x="5" y="36" fill="#d6e685"></rect>
          <rect width="10" height="10" x="5" y="48" fill="#d6e685"></rect>
          <rect width="10" height="10" x="5" y="60" fill="#d6e685"></rect>
          <rect width="10" height="10" x="5" y="72" fill="#d6e685"></rect>
      </g>
      <g transform="translate(117, 0)">
          <rect width="10" height="10" x="4" y="0" fill="#d6e685"></rect>
          <rect width="10" height="10" x="4" y="12" fill="#d6e685"></rect>
          <rect width="10" height="10" x="4" y="24" fill="#d6e685"></rect>
          <rect width="10" height="10" x="4" y="36" fill="#8cc665"></rect>
          <rect width="10" height="10" x="4" y="48" fill="#d6e685"></rect>
          <rect width="10" height="10" x="4" y="60" fill="#d6e685"></rect>
          <rect width="10" height="10" x="4" y="72" fill="#eeeeee"></rect>
      </g>
      <g transform="translate(130, 0)">
          <rect width="10" height="10" x="3" y="0" fill="#eeeeee"></rect>
          <rect width="10" height="10" x="3" y="12" fill="#d6e685"></rect>
          <rect width="10" height="10" x="3" y="24" fill="#8cc665"></rect>
          <rect width="10" height="10" x="3" y="36" fill="#d6e685"></rect>
          <rect width="10" height="10" x="3" y="48" fill="#eeeeee"></rect>
          <rect width="10" height="10" x="3" y="60" fill="#eeeeee"></rect>
          <rect width="10" height="10" x="3" y="72" fill="#eeeeee"></rect>
      </g>
      <g transform="translate(143, 0)">
          <rect width="10" height="10" x="2" y="0" fill="#eeeeee"></rect>
          <rect width="10" height="10" x="2" y="12" fill="#d6e685"></rect>
          <rect width="10" height="10" x="2" y="24" fill="#d6e685"></rect>
          <rect width="10" height="10" x="2" y="36" fill="#d6e685"></rect>
          <rect width="10" height="10" x="2" y="48" fill="#d6e685"></rect>
          <rect width="10" height="10" x="2" y="60" fill="#d6e685"></rect>
          <rect width="10" height="10" x="2" y="72" fill="#eeeeee"></rect>
      </g>
      <g transform="translate(156, 0)">
          <rect width="10" height="10" x="1" y="0" fill="#d6e685"></rect>
          <rect width="10" height="10" x="1" y="12" fill="#d6e685"></rect>
          <rect width="10" height="10" x="1" y="24" fill="#8cc665"></rect>
          <rect width="10" height="10" x="1" y="36" fill="#8cc665"></rect>
          <rect width="10" height="10" x="1" y="48" fill="#8cc665"></rect>
          <rect width="10" height="10" x="1" y="60" fill="#d6e685"></rect>
          <rect width="10" height="10" x="1" y="72" fill="#d6e685"></rect>
      </g>
      <g transform="translate(169, 0)">
          <rect width="10" height="10" x="0" y="0" fill="#d6e685"></rect>
          <rect width="10" height="10" x="0" y="12" fill="#1e6823"></rect>
          <rect width="10" height="10" x="0" y="24" fill="#d6e685"></rect>
          <rect width="10" height="10" x="0" y="36" fill="#d6e685"></rect>
          <rect width="10" height="10" x="0" y="48" fill="#8cc665"></rect>
          <rect width="10" height="10" x="0" y="60" fill="#d6e685"></rect>
          <rect width="10" height="10" x="0" y="72" fill="#d6e685"></rect>
      </g>
      <g transform="translate(182, 0)">
          <rect width="10" height="10" x="-1" y="0" fill="#8cc665"></rect>
          <rect width="10" height="10" x="-1" y="12" fill="#d6e685"></rect>
          <rect width="10" height="10" x="-1" y="24" fill="#d6e685"></rect>
          <rect width="10" height="10" x="-1" y="36" fill="#8cc665"></rect>
          <rect width="10" height="10" x="-1" y="48" fill="#8cc665"></rect>
          <rect width="10" height="10" x="-1" y="60" fill="#d6e685"></rect>
          <rect width="10" height="10" x="-1" y="72" fill="#1e6823"></rect>
      </g>
      <g transform="translate(195, 0)">
          <rect width="10" height="10" x="-2" y="0" fill="#eeeeee"></rect>
          <rect width="10" height="10" x="-2" y="12" fill="#d6e685"></rect>
          <rect width="10" height="10" x="-2" y="24" fill="#d6e685"></rect>
          <rect width="10" height="10" x="-2" y="36" fill="#d6e685"></rect>
          <rect width="10" height="10" x="-2" y="48" fill="#d6e685"></rect>
          <rect width="10" height="10" x="-2" y="60" fill="#8cc665"></rect>
          <rect width="10" height="10" x="-2" y="72" fill="#d6e685"></rect>
      </g>
      <g transform="translate(208, 0)">
          <rect width="10" height="10" x="-3" y="0" fill="#eeeeee"></rect>
          <rect width="10" height="10" x="-3" y="12" fill="#d6e685"></rect>
          <rect width="10" height="10" x="-3" y="24" fill="#d6e685"></rect>
          <rect width="10" height="10" x="-3" y="36" fill="#d6e685"></rect>
          <rect width="10" height="10" x="-3" y="48" fill="#d6e685"></rect>
          <rect width="10" height="10" x="-3" y="60" fill="#8cc665"></rect>
          <rect width="10" height="10" x="-3" y="72" fill="#8cc665"></rect>
      </g>
      <g transform="translate(221, 0)">
          <rect width="10" height="10" x="-4" y="0" fill="#d6e685"></rect>
          <rect width="10" height="10" x="-4" y="12" fill="#d6e685"></rect>
          <rect width="10" height="10" x="-4" y="24" fill="#d6e685"></rect>
          <rect width="10" height="10" x="-4" y="36" fill="#8cc665"></rect>
          <rect width="10" height="10" x="-4" y="48" fill="#d6e685"></rect>
          <rect width="10" height="10" x="-4" y="60" fill="#d6e685"></rect>
          <rect width="10" height="10" x="-4" y="72" fill="#d6e685"></rect>
      </g>
      <g transform="translate(234, 0)">
          <rect width="10" height="10" x="-5" y="0" fill="#eeeeee"></rect>
          <rect width="10" height="10" x="-5" y="12" fill="#8cc665"></rect>
          <rect width="10" height="10" x="-5" y="24" fill="#d6e685"></rect>
          <rect width="10" height="10" x="-5" y="36" fill="#eeeeee"></rect>
          <rect width="10" height="10" x="-5" y="48" fill="#d6e685"></rect>
          <rect width="10" height="10" x="-5" y="60" fill="#1e6823"></rect>
          <rect width="10" height="10" x="-5" y="72" fill="#44a340"></rect>
      </g>
      <g transform="translate(247, 0)">
          <rect width="10" height="10" x="-6" y="0" fill="#eeeeee"></rect>
          <rect width="10" height="10" x="-6" y="12" fill="#8cc665"></rect>
          <rect width="10" height="10" x="-6" y="24" fill="#8cc665"></rect>
          <rect width="10" height="10" x="-6" y="36" fill="#44a340"></rect>
          <rect width="10" height="10" x="-6" y="48" fill="#8cc665"></rect>
          <rect width="10" height="10" x="-6" y="60" fill="#eeeeee"></rect>
          <rect width="10" height="10" x="-6" y="72" fill="#d6e685"></rect>
      </g>
      <g transform="translate(260, 0)">
          <rect width="10" height="10" x="-7" y="0" fill="#d6e685"></rect>
          <rect width="10" height="10" x="-7" y="12" fill="#44a340"></rect>
          <rect width="10" height="10" x="-7" y="24" fill="#1e6823"></rect>
          <rect width="10" height="10" x="-7" y="36" fill="#1e6823"></rect>
          <rect width="10" height="10" x="-7" y="48" fill="#8cc665"></rect>
          <rect width="10" height="10" x="-7" y="60" fill="#1e6823"></rect>
          <rect width="10" height="10" x="-7" y="72" fill="#8cc665"></rect>
      </g>
      <g transform="translate(273, 0)">
          <rect width="10" height="10" x="-8" y="0" fill="#d6e685"></rect>
          <rect width="10" height="10" x="-8" y="12" fill="#44a340"></rect>
          <rect width="10" height="10" x="-8" y="24" fill="#d6e685"></rect>
          <rect width="10" height="10" x="-8" y="36" fill="#d6e685"></rect>
          <rect width="10" height="10" x="-8" y="48" fill="#d6e685"></rect>
          <rect width="10" height="10" x="-8" y="60" fill="#d6e685"></rect>
          <rect width="10" height="10" x="-8" y="72" fill="#1e6823"></rect>
      </g>
      <g transform="translate(286, 0)">
          <rect width="10" height="10" x="-9" y="0" fill="#d6e685"></rect>
          <rect width="10" height="10" x="-9" y="12" fill="#8cc665"></rect>
          <rect width="10" height="10" x="-9" y="24" fill="#d6e685"></rect>
          <rect width="10" height="10" x="-9" y="36" fill="#d6e685"></rect>
          <rect width="10" height="10" x="-9" y="48" fill="#d6e685"></rect>
          <rect width="10" height="10" x="-9" y="60" fill="#d6e685"></rect>
          <rect width="10" height="10" x="-9" y="72" fill="#d6e685"></rect>
      </g>
      <g transform="translate(299, 0)">
          <rect width="10" height="10" x="-10" y="0" fill="#eeeeee"></rect>
          <rect width="10" height="10" x="-10" y="12" fill="#d6e685"></rect>
          <rect width="10" height="10" x="-10" y="24" fill="#d6e685"></rect>
          <rect width="10" height="10" x="-10" y="36" fill="#8cc665"></rect>
          <rect width="10" height="10" x="-10" y="48" fill="#d6e685"></rect>
          <rect width="10" height="10" x="-10" y="60" fill="#8cc665"></rect>
          <rect width="10" height="10" x="-10" y="72" fill="#eeeeee"></rect>
      </g>
      <g transform="translate(312, 0)">
          <rect width="10" height="10" x="-11" y="0" fill="#d6e685"></rect>
          <rect width="10" height="10" x="-11" y="12" fill="#eeeeee"></rect>
          <rect width="10" height="10" x="-11" y="24" fill="#d6e685"></rect>
          <rect width="10" height="10" x="-11" y="36" fill="#d6e685"></rect>
          <rect width="10" height="10" x="-11" y="48" fill="#d6e685"></rect>
          <rect width="10" height="10" x="-11" y="60" fill="#d6e685"></rect>
          <rect width="10" height="10" x="-11" y="72" fill="#eeeeee"></rect>
      </g>
      <g transform="translate(325, 0)">
          <rect width="10" height="10" x="-12" y="0" fill="#eeeeee"></rect>
          <rect width="10" height="10" x="-12" y="12" fill="#d6e685"></rect>
          <rect width="10" height="10" x="-12" y="24" fill="#8cc665"></rect>
          <rect width="10" height="10" x="-12" y="36" fill="#d6e685"></rect>
          <rect width="10" height="10" x="-12" y="48" fill="#d6e685"></rect>
          <rect width="10" height="10" x="-12" y="60" fill="#8cc665"></rect>
          <rect width="10" height="10" x="-12" y="72" fill="#eeeeee"></rect>
      </g>
      <g transform="translate(338, 0)">
          <rect width="10" height="10" x="-13" y="0" fill="#d6e685"></rect>
          <rect width="10" height="10" x="-13" y="12" fill="#d6e685"></rect>
          <rect width="10" height="10" x="-13" y="24" fill="#d6e685"></rect>
          <rect width="10" height="10" x="-13" y="36" fill="#eeeeee"></rect>
          <rect width="10" height="10" x="-13" y="48" fill="#d6e685"></rect>
          <rect width="10" height="10" x="-13" y="60" fill="#d6e685"></rect>
          <rect width="10" height="10" x="-13" y="72" fill="#d6e685"></rect>
      </g>
      <g transform="translate(351, 0)">
          <rect width="10" height="10" x="-14" y="0" fill="#d6e685"></rect>
          <rect width="10" height="10" x="-14" y="12" fill="#8cc665"></rect>
          <rect width="10" height="10" x="-14" y="24" fill="#d6e685"></rect>
          <rect width="10" height="10" x="-14" y="36" fill="#d6e685"></rect>
          <rect width="10" height="10" x="-14" y="48" fill="#d6e685"></rect>
          <rect width="10" height="10" x="-14" y="60" fill="#d6e685"></rect>
          <rect width="10" height="10" x="-14" y="72" fill="#d6e685"></rect>
      </g>
      <g transform="translate(364, 0)">
          <rect width="10" height="10" x="-15" y="0" fill="#d6e685"></rect>
          <rect width="10" height="10" x="-15" y="12" fill="#8cc665"></rect>
          <rect width="10" height="10" x="-15" y="24" fill="#eeeeee"></rect>
          <rect width="10" height="10" x="-15" y="36" fill="#d6e685"></rect>
          <rect width="10" height="10" x="-15" y="48" fill="#8cc665"></rect>
          <rect width="10" height="10" x="-15" y="60" fill="#d6e685"></rect>
          <rect width="10" height="10" x="-15" y="72" fill="#d6e685"></rect>
      </g>
      <g transform="translate(377, 0)">
          <rect width="10" height="10" x="-16" y="0" fill="#d6e685"></rect>
          <rect width="10" height="10" x="-16" y="12" fill="#d6e685"></rect>
          <rect width="10" height="10" x="-16" y="24" fill="#eeeeee"></rect>
          <rect width="10" height="10" x="-16" y="36" fill="#d6e685"></rect>
          <rect width="10" height="10" x="-16" y="48" fill="#d6e685"></rect>
          <rect width="10" height="10" x="-16" y="60" fill="#d6e685"></rect>
          <rect width="10" height="10" x="-16" y="72" fill="#eeeeee"></rect>
      </g>
      <g transform="translate(390, 0)">
          <rect width="10" height="10" x="-17" y="0" fill="#eeeeee"></rect>
          <rect width="10" height="10" x="-17" y="12" fill="#d6e685"></rect>
          <rect width="10" height="10" x="-17" y="24" fill="#d6e685"></rect>
          <rect width="10" height="10" x="-17" y="36" fill="#d6e685"></rect>
          <rect width="10" height="10" x="-17" y="48" fill="#d6e685"></rect>
          <rect width="10" height="10" x="-17" y="60" fill="#eeeeee"></rect>
          <rect width="10" height="10" x="-17" y="72" fill="#eeeeee"></rect>
      </g>
      <g transform="translate(403, 0)">
          <rect width="10" height="10" x="-18" y="0" fill="#d6e685"></rect>
          <rect width="10" height="10" x="-18" y="12" fill="#d6e685"></rect>
          <rect width="10" height="10" x="-18" y="24" fill="#d6e685"></rect>
          <rect width="10" height="10" x="-18" y="36" fill="#eeeeee"></rect>
          <rect width="10" height="10" x="-18" y="48" fill="#d6e685"></rect>
          <rect width="10" height="10" x="-18" y="60" fill="#d6e685"></rect>
          <rect width="10" height="10" x="-18" y="72" fill="#d6e685"></rect>
      </g>
      <g transform="translate(416, 0)">
          <rect width="10" height="10" x="-19" y="0" fill="#eeeeee"></rect>
          <rect width="10" height="10" x="-19" y="12" fill="#d6e685"></rect>
          <rect width="10" height="10" x="-19" y="24" fill="#d6e685"></rect>
          <rect width="10" height="10" x="-19" y="36" fill="#d6e685"></rect>
          <rect width="10" height="10" x="-19" y="48" fill="#8cc665"></rect>
          <rect width="10" height="10" x="-19" y="60" fill="#d6e685"></rect>
          <rect width="10" height="10" x="-19" y="72" fill="#d6e685"></rect>
      </g>
      <g transform="translate(429, 0)">
          <rect width="10" height="10" x="-20" y="0" fill="#d6e685"></rect>
          <rect width="10" height="10" x="-20" y="12" fill="#d6e685"></rect>
          <rect width="10" height="10" x="-20" y="24" fill="#8cc665"></rect>
          <rect width="10" height="10" x="-20" y="36" fill="#d6e685"></rect>
          <rect width="10" height="10" x="-20" y="48" fill="#d6e685"></rect>
          <rect width="10" height="10" x="-20" y="60" fill="#44a340"></rect>
          <rect width="10" height="10" x="-20" y="72" fill="#d6e685"></rect>
      </g>
      <g transform="translate(442, 0)">
          <rect width="10" height="10" x="-21" y="0" fill="#eeeeee"></rect>
          <rect width="10" height="10" x="-21" y="12" fill="#d6e685"></rect>
          <rect width="10" height="10" x="-21" y="24" fill="#44a340"></rect>
          <rect width="10" height="10" x="-21" y="36" fill="#8cc665"></rect>
          <rect width="10" height="10" x="-21" y="48" fill="#44a340"></rect>
          <rect width="10" height="10" x="-21" y="60" fill="#8cc665"></rect>
          <rect width="10" height="10" x="-21" y="72" fill="#eeeeee"></rect>
      </g>
      <g transform="translate(455, 0)">
          <rect width="10" height="10" x="-22" y="0" fill="#eeeeee"></rect>
          <rect width="10" height="10" x="-22" y="12" fill="#d6e685"></rect>
          <rect width="10" height="10" x="-22" y="24" fill="#d6e685"></rect>
          <rect width="10" height="10" x="-22" y="36" fill="#eeeeee"></rect>
          <rect width="10" height="10" x="-22" y="48" fill="#d6e685"></rect>
          <rect width="10" height="10" x="-22" y="60" fill="#d6e685"></rect>
          <rect width="10" height="10" x="-22" y="72" fill="#d6e685"></rect>
      </g>
      <g transform="translate(468, 0)">
          <rect width="10" height="10" x="-23" y="0" fill="#d6e685"></rect>
          <rect width="10" height="10" x="-23" y="12" fill="#44a340"></rect>
          <rect width="10" height="10" x="-23" y="24" fill="#8cc665"></rect>
          <rect width="10" height="10" x="-23" y="36" fill="#d6e685"></rect>
          <rect width="10" height="10" x="-23" y="48" fill="#44a340"></rect>
          <rect width="10" height="10" x="-23" y="60" fill="#eeeeee"></rect>
          <rect width="10" height="10" x="-23" y="72" fill="#d6e685"></rect>
      </g>
      <g transform="translate(481, 0)">
          <rect width="10" height="10" x="-24" y="0" fill="#d6e685"></rect>
          <rect width="10" height="10" x="-24" y="12" fill="#8cc665"></rect>
          <rect width="10" height="10" x="-24" y="24" fill="#d6e685"></rect>
          <rect width="10" height="10" x="-24" y="36" fill="#8cc665"></rect>
          <rect width="10" height="10" x="-24" y="48" fill="#d6e685"></rect>
          <rect width="10" height="10" x="-24" y="60" fill="#d6e685"></rect>
          <rect width="10" height="10" x="-24" y="72" fill="#8cc665"></rect>
      </g>
      <g transform="translate(494, 0)">
          <rect width="10" height="10" x="-25" y="0" fill="#d6e685"></rect>
          <rect width="10" height="10" x="-25" y="12" fill="#d6e685"></rect>
          <rect width="10" height="10" x="-25" y="24" fill="#d6e685"></rect>
          <rect width="10" height="10" x="-25" y="36" fill="#d6e685"></rect>
          <rect width="10" height="10" x="-25" y="48" fill="#8cc665"></rect>
          <rect width="10" height="10" x="-25" y="60" fill="#d6e685"></rect>
          <rect width="10" height="10" x="-25" y="72" fill="#d6e685"></rect>
      </g>
      <g transform="translate(507, 0)">
          <rect width="10" height="10" x="-26" y="0" fill="#d6e685"></rect>
          <rect width="10" height="10" x="-26" y="12" fill="#d6e685"></rect>
          <rect width="10" height="10" x="-26" y="24" fill="#d6e685"></rect>
          <rect width="10" height="10" x="-26" y="36" fill="#8cc665"></rect>
          <rect width="10" height="10" x="-26" y="48" fill="#d6e685"></rect>
          <rect width="10" height="10" x="-26" y="60" fill="#8cc665"></rect>
          <rect width="10" height="10" x="-26" y="72" fill="#d6e685"></rect>
      </g>
      <g transform="translate(520, 0)">
          <rect width="10" height="10" x="-27" y="0" fill="#d6e685"></rect>
          <rect width="10" height="10" x="-27" y="12" fill="#d6e685"></rect>
          <rect width="10" height="10" x="-27" y="24" fill="#d6e685"></rect>
          <rect width="10" height="10" x="-27" y="36" fill="#d6e685"></rect>
          <rect width="10" height="10" x="-27" y="48" fill="#8cc665"></rect>
          <rect width="10" height="10" x="-27" y="60" fill="#d6e685"></rect>
          <rect width="10" height="10" x="-27" y="72" fill="#eeeeee"></rect>
      </g>
      <g transform="translate(533, 0)">
          <rect width="10" height="10" x="-28" y="0" fill="#d6e685"></rect>
          <rect width="10" height="10" x="-28" y="12" fill="#8cc665"></rect>
          <rect width="10" height="10" x="-28" y="24" fill="#8cc665"></rect>
          <rect width="10" height="10" x="-28" y="36" fill="#44a340"></rect>
          <rect width="10" height="10" x="-28" y="48" fill="#d6e685"></rect>
          <rect width="10" height="10" x="-28" y="60" fill="#d6e685"></rect>
          <rect width="10" height="10" x="-28" y="72" fill="#d6e685"></rect>
      </g>
      <g transform="translate(546, 0)">
          <rect width="10" height="10" x="-29" y="0" fill="#d6e685"></rect>
          <rect width="10" height="10" x="-29" y="12" fill="#8cc665"></rect>
          <rect width="10" height="10" x="-29" y="24" fill="#d6e685"></rect>
          <rect width="10" height="10" x="-29" y="36" fill="#8cc665"></rect>
          <rect width="10" height="10" x="-29" y="48" fill="#d6e685"></rect>
          <rect width="10" height="10" x="-29" y="60" fill="#d6e685"></rect>
          <rect width="10" height="10" x="-29" y="72" fill="#eeeeee"></rect>
      </g>
      <g transform="translate(559, 0)">
          <rect width="10" height="10" x="-30" y="0" fill="#eeeeee"></rect>
          <rect width="10" height="10" x="-30" y="12" fill="#d6e685"></rect>
          <rect width="10" height="10" x="-30" y="24" fill="#8cc665"></rect>
          <rect width="10" height="10" x="-30" y="36" fill="#d6e685"></rect>
          <rect width="10" height="10" x="-30" y="48" fill="#d6e685"></rect>
          <rect width="10" height="10" x="-30" y="60" fill="#8cc665"></rect>
          <rect width="10" height="10" x="-30" y="72" fill="#d6e685"></rect>
      </g>
      <g transform="translate(572, 0)">
          <rect width="10" height="10" x="-31" y="0" fill="#d6e685"></rect>
          <rect width="10" height="10" x="-31" y="12" fill="#8cc665"></rect>
          <rect width="10" height="10" x="-31" y="24" fill="#8cc665"></rect>
          <rect width="10" height="10" x="-31" y="36" fill="#44a340"></rect>
          <rect width="10" height="10" x="-31" y="48" fill="#44a340"></rect>
          <rect width="10" height="10" x="-31" y="60" fill="#1e6823"></rect>
          <rect width="10" height="10" x="-31" y="72" fill="#d6e685"></rect>
      </g>
      <g transform="translate(585, 0)">
          <rect width="10" height="10" x="-32" y="0" fill="#d6e685"></rect>
          <rect width="10" height="10" x="-32" y="12" fill="#8cc665"></rect>
          <rect width="10" height="10" x="-32" y="24" fill="#d6e685"></rect>
          <rect width="10" height="10" x="-32" y="36" fill="#d6e685"></rect>
          <rect width="10" height="10" x="-32" y="48" fill="#1e6823"></rect>
          <rect width="10" height="10" x="-32" y="60" fill="#8cc665"></rect>
          <rect width="10" height="10" x="-32" y="72" fill="#d6e685"></rect>
      </g>
      <g transform="translate(598, 0)">
          <rect width="10" height="10" x="-33" y="0" fill="#d6e685"></rect>
          <rect width="10" height="10" x="-33" y="12" fill="#d6e685"></rect>
          <rect width="10" height="10" x="-33" y="24" fill="#d6e685"></rect>
          <rect width="10" height="10" x="-33" y="36" fill="#eeeeee"></rect>
          <rect width="10" height="10" x="-33" y="48" fill="#d6e685"></rect>
          <rect width="10" height="10" x="-33" y="60" fill="#8cc665"></rect>
          <rect width="10" height="10" x="-33" y="72" fill="#8cc665"></rect>
      </g>
      <g transform="translate(611, 0)">
          <rect width="10" height="10" x="-34" y="0" fill="#d6e685"></rect>
          <rect width="10" height="10" x="-34" y="12" fill="#d6e685"></rect>
          <rect width="10" height="10" x="-34" y="24" fill="#eeeeee"></rect>
          <rect width="10" height="10" x="-34" y="36" fill="#d6e685"></rect>
          <rect width="10" height="10" x="-34" y="48" fill="#d6e685"></rect>
          <rect width="10" height="10" x="-34" y="60" fill="#d6e685"></rect>
          <rect width="10" height="10" x="-34" y="72" fill="#eeeeee"></rect>
      </g>
      <g transform="translate(624, 0)">
          <rect width="10" height="10" x="-35" y="0" fill="#d6e685"></rect>
          <rect width="10" height="10" x="-35" y="12" fill="#d6e685"></rect>
          <rect width="10" height="10" x="-35" y="24" fill="#8cc665"></rect>
          <rect width="10" height="10" x="-35" y="36" fill="#8cc665"></rect>
          <rect width="10" height="10" x="-35" y="48" fill="#d6e685"></rect>
          <rect width="10" height="10" x="-35" y="60" fill="#8cc665"></rect>
          <rect width="10" height="10" x="-35" y="72" fill="#eeeeee"></rect>
      </g>
      <g transform="translate(637, 0)">
          <rect width="10" height="10" x="-36" y="0" fill="#d6e685"></rect>
          <rect width="10" height="10" x="-36" y="12" fill="#d6e685"></rect>
          <rect width="10" height="10" x="-36" y="24" fill="#44a340"></rect>
          <rect width="10" height="10" x="-36" y="36" fill="#d6e685"></rect>
          <rect width="10" height="10" x="-36" y="48" fill="#d6e685"></rect>
          <rect width="10" height="10" x="-36" y="60" fill="#d6e685"></rect>
          <rect width="10" height="10" x="-36" y="72" fill="#d6e685"></rect>
      </g>
      <g transform="translate(650, 0)">
          <rect width="10" height="10" x="-37" y="0" fill="#d6e685"></rect>
          <rect width="10" height="10" x="-37" y="12" fill="#d6e685"></rect>
          <rect width="10" height="10" x="-37" y="24" fill="#d6e685"></rect>
          <rect width="10" height="10" x="-37" y="36" fill="#d6e685"></rect>
          <rect width="10" height="10" x="-37" y="48" fill="#d6e685"></rect>
          <rect width="10" height="10" x="-37" y="60" fill="#d6e685"></rect>
          <rect width="10" height="10" x="-37" y="72" fill="#eeeeee"></rect>
      </g>
      <g transform="translate(663, 0)">
          <rect width="10" height="10" x="-38" y="0" fill="#8cc665"></rect>
          <rect width="10" height="10" x="-38" y="12" fill="#d6e685"></rect>
          <rect width="10" height="10" x="-38" y="24" fill="#d6e685"></rect>
          <rect width="10" height="10" x="-38" y="36" fill="#d6e685"></rect>
          <rect width="10" height="10" x="-38" y="48" fill="#1e6823"></rect>
          <rect width="10" height="10" x="-38" y="60" fill="#8cc665"></rect>
          <rect width="10" height="10" x="-38" y="72" fill="#eeeeee"></rect>
      </g>
      <g transform="translate(676, 0)">
          <rect width="10" height="10" x="-39" y="0" fill="#8cc665"></rect>
          <rect width="10" height="10" x="-39" y="12" fill="#8cc665"></rect>
          <rect width="10" height="10" x="-39" y="24" fill="#1e6823"></rect>
          <rect width="10" height="10" x="-39" y="36" fill="#eeeeee"></rect>
          <rect width="10" height="10" x="-39" y="48" fill="#8cc665"></rect>
      </g>
      <text x="13" y="-10">Feb</text>
      <text x="61" y="-10">Mar</text>
      <text x="109" y="-10">Apr</text>
      <text x="157" y="-10">May</text>
      <text x="217" y="-10">Jun</text>
      <text x="265" y="-10">Jul</text>
      <text x="325" y="-10">Aug</text>
      <text x="373" y="-10">Sep</text>
      <text x="421" y="-10">Oct</text>
      <text x="481" y="-10">Nov</text>
      <text x="529" y="-10">Dec</text>
      <text x="577" y="-10">Jan</text>
    <text text-anchor="start" dx="-14" dy="8" style="display: none;">Sun</text>
    <text text-anchor="start" dx="-14" dy="20">Mon</text>
    <text text-anchor="start" dx="-14" dy="32" style="display: none;">Tue</text>
    <text text-anchor="start" dx="-14" dy="44">Wed</text>
    <text text-anchor="start" dx="-14" dy="57" style="display: none;">Thu</text>
    <text text-anchor="start" dx="-14" dy="69">Fri</text>
    <text text-anchor="start" dx="-14" dy="81" style="display: none;">Sat</text>
  </g>
</svg>
